<svg xmlns="http://www.w3.org/2000/svg" width="20" height="20" viewBox="0 0 20 20" fill="none" className="fill-primary">
  <path d="M13.492 1.66675H6.50866C3.47533 1.66675 1.66699 3.47508 1.66699 6.50841V13.4834C1.66699 16.5251 3.47533 18.3334 6.50866 18.3334H13.4837C16.517 18.3334 18.3253 16.5251 18.3253 13.4917V6.50841C18.3337 3.47508 16.5253 1.66675 13.492 1.66675ZM13.9837 8.08341L9.25866 12.8084C9.14199 12.9251 8.98366 12.9917 8.81699 12.9917C8.65033 12.9917 8.49199 12.9251 8.37533 12.8084L6.01699 10.4501C5.77533 10.2084 5.77533 9.80841 6.01699 9.56675C6.25866 9.32508 6.65866 9.32508 6.90033 9.56675L8.81699 11.4834L13.1003 7.20008C13.342 6.95842 13.742 6.95842 13.9837 7.20008C14.2253 7.44175 14.2253 7.83341 13.9837 8.08341Z"/>
</svg>