<svg xmlns="http://www.w3.org/2000/svg" width="30" height="30" viewBox="0 0 30 30" fill="none">
  <path d="M10.8194 9.57712L13.664 6.72011V18.6326C13.664 18.962 13.7949 19.278 14.0278 19.511C14.2608 19.7439 14.5767 19.8748 14.9062 19.8748C15.2356 19.8748 15.5516 19.7439 15.7845 19.511C16.0175 19.278 16.1483 18.962 16.1483 18.6326V6.72011L18.9929 9.57712C19.1084 9.69355 19.2458 9.78596 19.3972 9.84903C19.5485 9.91209 19.7109 9.94456 19.8749 9.94456C20.0389 9.94456 20.2012 9.91209 20.3526 9.84903C20.504 9.78596 20.6413 9.69355 20.7568 9.57712C20.8732 9.46165 20.9657 9.32426 21.0287 9.17289C21.0918 9.02152 21.1243 8.85916 21.1243 8.69518C21.1243 8.53119 21.0918 8.36883 21.0287 8.21746C20.9657 8.06609 20.8732 7.92871 20.7568 7.81323L15.7881 2.84452C15.67 2.73143 15.5307 2.64278 15.3782 2.58366C15.0758 2.45942 14.7366 2.45942 14.4341 2.58366C14.2817 2.64278 14.1423 2.73143 14.0242 2.84452L9.0555 7.81323C8.93968 7.92905 8.84781 8.06655 8.78513 8.21787C8.72245 8.3692 8.69019 8.53138 8.69019 8.69518C8.69019 8.85897 8.72245 9.02116 8.78513 9.17248C8.84781 9.32381 8.93968 9.4613 9.0555 9.57712C9.17132 9.69294 9.30882 9.78481 9.46014 9.8475C9.61146 9.91018 9.77365 9.94244 9.93745 9.94244C10.1012 9.94244 10.2634 9.91018 10.4148 9.8475C10.5661 9.78481 10.7036 9.69294 10.8194 9.57712ZM26.0858 14.9061C25.7563 14.9061 25.4404 15.0369 25.2074 15.2699C24.9745 15.5028 24.8436 15.8188 24.8436 16.1482V23.6013C24.8436 23.9308 24.7127 24.2467 24.4798 24.4797C24.2468 24.7126 23.9309 24.8435 23.6014 24.8435H6.21091C5.88146 24.8435 5.56551 24.7126 5.33256 24.4797C5.0996 24.2467 4.96873 23.9308 4.96873 23.6013V16.1482C4.96873 15.8188 4.83786 15.5028 4.60491 15.2699C4.37195 15.0369 4.056 14.9061 3.72655 14.9061C3.39711 14.9061 3.08115 15.0369 2.8482 15.2699C2.61525 15.5028 2.48438 15.8188 2.48438 16.1482V23.6013C2.48438 24.5897 2.87699 25.5375 3.57585 26.2364C4.27471 26.9352 5.22257 27.3279 6.21091 27.3279H23.6014C24.5897 27.3279 25.5376 26.9352 26.2365 26.2364C26.9353 25.5375 27.3279 24.5897 27.3279 23.6013V16.1482C27.3279 15.8188 27.1971 15.5028 26.9641 15.2699C26.7312 15.0369 26.4152 14.9061 26.0858 14.9061Z" fill="#833EFF"/>
</svg>